<svg width="30" height="30" viewBox="0 0 30 30" fill="none" xmlns="http://www.w3.org/2000/svg">
<g clip-path="url(#clip0_31_46)">
<path d="M9.1125 25.0658L15 21.3553L20.8875 25.1053L19.3125 18.0789L24.4875 13.3421L17.6625 12.7105L15 6.07895L12.3375 12.6711L5.5125 13.3026L10.6875 18.0395L9.1125 25.0658ZM5.7375 30L8.175 18.9079L0 11.4474L10.8 10.4605L15 0L19.2 10.4605L30 11.4474L21.825 18.9079L24.2625 30L15 24.1184L5.7375 30Z" fill="#EBBA34"/>
<path d="M19.8697 25.0533C19.3693 24.2722 18.9813 23.3645 18.6074 22.5107C18.1327 21.427 17.6848 20.2076 17.5474 19.0143C17.5273 18.8397 17.5452 19.7202 17.5555 19.832C17.6265 20.6079 17.9814 21.2856 18.1098 22.0423C18.1484 22.27 18.1757 22.5059 18.1947 22.7365C18.2186 23.0257 18.2713 22.1572 18.2514 21.8677C18.1785 20.8103 17.8804 19.7303 17.6849 18.6906C17.6371 18.436 17.3936 16.8931 17.3936 17.8772C17.3936 18.5322 17.7869 19.0482 17.8265 19.6744C17.8542 20.1114 17.5993 19.1604 17.5959 19.1505C17.3507 18.4322 17.037 17.7478 16.811 17.0211C16.659 16.5323 16.5102 16.038 16.3174 15.5646C16.1852 15.2398 16.2302 16.2674 16.2284 16.6208C16.2248 17.3471 16.2461 18.0754 16.2203 18.8013C16.2014 19.3343 16.0196 19.9403 16.0868 20.4708C16.1434 20.9174 16.2276 19.5751 16.2082 19.125C16.1604 18.0173 15.8452 16.961 15.4435 15.9437C15.322 15.636 15.1018 15.263 15.4112 15.7946C15.9753 16.7638 16.5213 17.7242 16.7948 18.8354C16.9269 19.3718 17.1403 21.021 17.0295 20.4793C16.9246 19.9662 16.6704 19.5198 16.3781 19.0994C16.2412 18.9025 15.6846 18.0503 15.3383 18.0603C15.1546 18.0656 15.9302 20.5952 15.9776 20.7774C16.0255 20.9616 16.393 22.989 16.1677 21.7058C15.9857 20.669 15.4567 19.7913 15.0592 18.8397C14.7664 18.1388 14.1068 15.9628 14.2217 16.7188C14.3719 17.707 14.7096 18.6617 14.869 19.6531C14.9212 19.9778 14.9026 19.8709 14.8205 19.6616C14.5801 19.0496 14.2774 18.4843 13.9425 17.924C13.7976 17.6815 12.5436 15.9711 13.6674 16.7401C15.105 17.7237 15.982 19.5368 16.5723 21.1735C16.7616 21.6984 17.0844 23.346 17.0295 22.7876C16.9388 21.8641 16.3216 20.9756 15.7672 20.3004C14.9071 19.2529 13.8234 18.4471 12.9432 17.4215C12.7119 17.152 12.4772 16.8602 12.3242 16.5314C12.2755 16.4268 12.1642 16.1582 12.2716 16.1864C12.6629 16.2894 12.9932 17.6225 13.0767 17.924C13.3634 18.9597 13.4973 20.1778 13.3154 21.2501C13.2074 21.887 12.9347 21.0732 12.8461 20.8413C12.5404 20.0415 12.4987 19.2462 12.6964 18.4138C12.7203 18.3132 12.8562 17.5409 12.9675 18.0177C13.0805 18.5021 13.1398 19.0105 13.1981 19.504C13.2038 19.5522 13.485 21.0795 12.927 20.2749C12.1586 19.1669 11.6863 17.8456 11.3491 16.5442C11.1972 15.9578 11.3999 17.7593 11.3896 18.3669C11.3768 19.1148 11.2048 19.8305 11.0335 20.5517C10.8653 21.2602 11.3596 20.3262 11.4786 20.1599C11.9971 19.4349 12.6153 18.6863 13.5298 18.5714C14.1133 18.498 14.1336 19.1218 14.0922 19.5849C14.0304 20.2758 13.6588 20.8408 13.2749 21.3822C13.1129 21.6106 12.5196 22.0851 13.0807 21.8421C13.7952 21.5328 14.5349 21.2471 15.2979 21.1011C15.5378 21.0552 15.2959 21.2047 15.2372 21.2459C14.9333 21.4591 14.6157 21.6501 14.2864 21.8166C13.6276 22.1497 12.917 22.4962 12.2149 22.7152C11.7943 22.8464 12.6207 22.1335 12.7692 22.0721C12.866 22.0321 12.7843 22.3127 12.7166 22.3958C12.3374 22.8614 11.7742 23.1226 11.248 23.3455C10.6782 23.5868 10.0698 23.8005 9.47183 23.9545C9.16712 24.0329 9.43716 23.8079 9.51229 23.716C10.2202 22.8495 10.9325 21.8502 11.1873 20.7178C11.2902 20.2603 10.668 21.4844 10.3781 21.8421C9.82074 22.53 9.99407 23.6282 9.52847 24.3633" stroke="#EBBA34" stroke-width="3" stroke-linecap="round"/>
<path d="M23.7298 13.9378C22.2906 13.5591 20.6881 13.5654 19.2146 13.5545C17.4911 13.5417 15.7696 13.4778 14.0439 13.4778" stroke="white" stroke-width="3" stroke-linecap="round"/>
<path d="M19.5785 16.8508C18.8224 16.1194 18.1781 15.1757 17.6203 14.2785C16.9919 13.2675 16.4084 12.1613 16.2447 10.9481C16.1816 10.4802 16.2234 10.763 16.2285 11.0333C16.245 11.9076 16.359 12.7816 16.5158 13.6396C16.6173 14.1951 16.8308 14.8827 16.8678 13.8696C16.9172 12.5182 16.4219 11.0944 15.7754 9.94726C15.7139 9.83816 15.56 9.49955 15.5852 9.62359C15.6758 10.0686 15.7781 10.5105 15.8644 10.9566C16.0058 11.6871 16.1649 12.4098 16.3378 13.1328C16.4984 13.8044 16.5855 14.5997 16.8678 15.2324C17.0168 15.5663 18.442 13.91 18.6196 13.7163C18.8295 13.4875 19.0287 13.2496 19.2265 13.0093C19.4391 12.7512 18.9289 13.6197 18.737 13.8952C18.3091 14.509 16.6396 15.9922 17.151 15.4539C18.046 14.5118 18.9745 13.8254 20.2582 13.6524C20.5526 13.6128 22.2219 13.3421 21.4073 14.0144C21.0744 14.2891 20.6735 14.4805 20.2663 14.5936C20.1416 14.6283 18.779 14.8148 19.2589 14.6575C19.8229 14.4726 20.4282 14.4114 21.0108 14.3253C21.1278 14.308 21.6393 14.2342 21.7876 14.2103C21.9247 14.1883 22.305 14.193 22.1921 14.1081C22.0756 14.0204 21.5504 14.3915 21.4801 14.4318C20.8216 14.8087 20.1705 15.204 19.5016 15.5604C19.3076 15.6637 18.6899 15.8793 18.9029 15.8329C19.9783 15.5987 21.0508 15.351 22.1274 15.1217C22.7115 14.9973 23.5385 14.9423 24.0694 14.6021C24.3532 14.4203 23.4063 14.551 23.0741 14.551C21.4674 14.551 19.7919 14.5616 18.1948 14.3892C18.1165 14.3807 18.9621 14.1781 19.0242 14.1677C19.7752 14.0429 20.5315 13.9251 21.294 13.9548C21.3302 13.9562 22.0529 14.081 22.0303 14.0911C21.9338 14.134 21.4849 14.1834 21.472 14.1848C20.679 14.2712 19.8813 14.3172 19.0849 14.3509C18.4669 14.377 18.0672 14.3852 17.4625 14.3935C17.2184 14.3968 16.9437 14.5012 16.7302 14.3764C16.5912 14.2951 17.0187 14.232 17.1712 14.1848C17.8431 13.9768 18.5264 13.8183 19.2144 13.6822C19.7308 13.5801 19.7885 13.5817 20.2582 13.4948C20.3646 13.4752 20.6221 13.5198 20.5738 13.4182C20.5146 13.2936 20.3096 13.4036 20.1773 13.4012C19.2277 13.3835 18.2806 13.3415 17.3331 13.2691C16.1246 13.1768 14.9158 13.053 13.7201 12.8432C13.6861 12.8373 13.3766 12.8055 13.5947 12.7879C14.2508 12.7348 14.925 12.7484 15.5812 12.7623C16.818 12.7886 20.5119 12.9821 19.2791 13.0903C18.7289 13.1385 19.4191 13.0654 19.4005 12.8986C19.3893 12.7985 19.0271 12.8814 19.1173 12.8475C19.8283 12.5802 20.8884 12.676 21.6176 12.6175C22.6476 12.5349 23.6989 12.3735 24.733 12.362C24.7878 12.3614 23.8116 12.5858 23.6729 12.6005C22.4383 12.7313 21.2021 12.8493 19.9669 12.9753C18.9721 13.0767 19.0142 13.0704 18.0694 13.1627C17.6931 13.1994 17.1022 13.3439 16.706 13.2564C16.5732 13.227 16.3827 12.5415 16.2933 12.4046C16.1685 12.2136 16.007 12.0979 15.8442 11.9489C15.6125 11.7368 15.5873 11.1932 15.5084 10.914C15.2957 10.1615 15.0444 9.42254 14.8206 8.67387C14.7934 8.58313 14.5944 7.87476 14.59 7.89451C14.5027 8.28032 14.5536 8.73415 14.5536 9.12531C14.5536 9.73562 14.4754 10.4113 14.5697 11.0162C14.7546 12.2017 15.1777 8.68109 15.2373 7.48141C15.2586 7.05299 15.2818 5.76624 15.2818 6.19525C15.2818 6.76617 15.2732 7.33795 15.2292 7.90729C15.1599 8.80476 14.9772 9.6789 14.861 10.569C14.8337 10.7782 14.5979 12.0169 14.772 12.2002C14.8408 12.2726 14.7816 11.9957 14.7882 11.8935C14.8071 11.6009 14.8085 11.6259 14.8287 11.3399C14.8652 10.8207 14.8422 11.2281 14.8489 11.4932C14.8679 12.2417 14.9221 12.9882 14.8974 13.7376C14.8805 14.2515 14.8571 14.5507 14.768 15.0408C14.7642 15.0616 14.6586 15.723 14.5697 15.7776C14.4904 15.8263 14.5542 15.5847 14.5536 15.488C14.5527 15.3725 14.5545 14.7492 14.5536 14.6703C14.544 13.9053 14.4591 13.1603 14.3513 12.4046C14.3034 12.0694 14.2604 11.7335 14.2056 11.3995C14.1888 11.2969 14.1917 11.0336 14.1166 11.1014C13.8773 11.3173 13.8208 12.2984 13.7444 12.6048C13.5974 13.194 13.395 13.7568 13.1496 14.3083C12.8562 14.9677 12.8696 14.5455 12.9109 14.074C12.9729 13.3666 13.0893 12.6584 13.3155 11.9872C13.3468 11.8943 13.7005 10.9586 13.5825 11.621C13.3332 13.0209 12.3391 14.1555 11.4544 15.1643C11.4406 15.1801 10.8214 16.0528 10.8678 15.5731C10.9444 14.7802 11.2119 13.99 11.4059 13.2223C11.4452 13.0664 11.4916 12.5799 11.6243 12.4557C11.9287 12.1709 11.4525 13.3003 11.2845 13.6907C11.0014 14.3486 10.6303 14.953 10.2892 15.5774C10.1745 15.7873 9.92382 16.4062 10.2083 15.8031C10.5218 15.1384 10.7913 14.4523 11.0984 13.7844C11.2604 13.432 11.4534 12.9252 11.7255 12.6388C12.2612 12.0749 10.9138 14.0364 10.2973 14.4999C9.51122 15.091 9.27475 14.3958 8.8246 13.7972C8.5393 13.4179 7.68091 12.6979 7.23053 13.3075C6.9088 13.7429 9.2158 14.8148 9.38293 14.9003C9.89366 15.1613 10.6139 15.3628 11.066 15.7435C11.4335 16.0529 10.1541 15.4907 9.71469 15.3134C8.58498 14.8575 7.45179 14.413 6.26761 14.1379C5.94327 14.0626 5.86382 14.0535 5.58791 14.0229C5.55828 14.0197 5.52857 14.0173 5.4989 14.0144C5.43153 14.008 5.63389 14.0243 5.70119 14.0315C6.74594 14.1424 7.53156 14.6148 8.39978 15.1984C9.24037 15.7634 9.95625 16.3674 10.8597 16.8636C11.1941 17.0472 11.9834 17.7421 12.0775 17.0552C12.2838 15.5482 11.7484 14.1262 11.5556 12.6601C11.5233 12.4149 11.5998 12.2633 11.7134 12.5622C11.8496 12.9206 11.9139 13.3623 11.7862 13.7333C11.6581 14.1053 11.3504 14.4173 11.0943 14.6958C11.0292 14.7666 10.9753 14.8436 11.0256 14.7001C11.1648 14.3022 11.3421 13.9202 11.4787 13.5204C11.5981 13.171 12.0947 12.1026 11.7053 11.7573C11.1228 11.2407 10.0327 12.2495 9.67423 12.6559C9.51375 12.8378 9.44896 12.9412 9.69446 12.9412C10.2345 12.9412 10.7739 12.8537 11.2926 12.6942C12.536 12.3119 13.2276 11.2017 14.0276 10.2326C14.2313 9.98582 14.4631 9.62948 14.7235 9.44046C14.7572 9.41601 14.5519 9.76329 14.505 9.81097C14.2651 10.0548 13.7525 10.4865 13.7525 10.8714" stroke="#EBBA34" stroke-width="3" stroke-linecap="round"/>
<path d="M19.3596 15.9309C19.3315 15.4194 19.4283 14.9643 19.5296 14.4659C19.5827 14.2042 19.5724 13.6338 19.7197 13.4012C20.0184 12.9295 19.4421 14.4968 19.2908 15.0408C19.2077 15.3398 19.214 15.6195 19.214 15.9266C19.214 16.3218 19.326 16.4335 19.744 16.4973C20.7937 16.6577 21.5438 16.0098 22.1432 15.1814C22.3771 14.858 22.6149 14.4716 22.9079 14.2018C22.9748 14.1402 22.6366 14.596 22.5559 14.6618C21.9614 15.1461 21.2851 15.4982 20.6138 15.8457C20.2317 16.0436 20.1403 16.0863 19.7925 16.2801C19.6827 16.3414 19.4648 16.5984 19.4648 16.4675C19.4648 16.3335 20.1531 15.8846 20.2416 15.8202C20.7535 15.4478 21.2866 15.1156 21.7791 14.7129C22.6435 14.006 21.521 14.9401 21.2329 15.0877C20.7269 15.3467 20.1595 15.59 19.6105 15.7265C19.1371 15.8441 20.2814 14.9819 20.6543 14.6533C20.7433 14.5748 21.9371 13.5329 22.0259 13.6056C22.3078 13.8364 22.1998 14.345 22.1998 14.6703C22.1998 15.5633 21.4983 15.8566 20.7514 16.0842C20.4002 16.1912 19.7369 16.5067 19.3637 16.4462C19.3084 16.4373 19.6788 16.1036 19.7157 16.0842C20.2188 15.8194 20.8051 15.7096 21.3381 15.5348C21.9982 15.3184 22.6077 15.0301 23.2113 14.6788C23.3909 14.5742 23.5444 14.4978 23.6563 14.3211" stroke="#EBBA34" stroke-width="3" stroke-linecap="round"/>
<path d="M18.6318 18.2307C18.9897 18.6492 18.9666 19.4018 19.3965 19.7638C19.6445 19.9727 19.733 20.6983 19.797 21.0074C19.8959 21.4848 20.1087 21.9751 20.1652 22.4511C20.185 22.618 20.5253 23.625 20.5253 23.1368" stroke="white" stroke-width="3" stroke-linecap="round"/>
<path d="M20.3793 22.6002C19.839 22.0461 19.5326 21.1884 19.2302 20.4793C18.8953 19.694 18.6503 18.8772 18.3523 18.0774C18.2019 17.6736 18.197 17.8732 18.1945 18.1881C18.19 18.7546 18.1763 19.3293 18.2835 19.8874C18.3622 20.2971 18.4378 21.297 18.9592 21.297C19.4983 21.297 19.7649 19.9603 19.829 19.5552C19.8637 19.336 19.8695 19.1251 19.8695 18.9036C19.8695 18.5262 19.8305 19.2386 19.825 19.2783C19.7746 19.6381 19.5907 20.0979 19.6834 20.4623C19.738 20.6769 19.931 20.5787 20.0151 20.4495C20.64 19.4903 19.5905 17.9426 18.9066 17.3363C18.8471 17.2836 18.7343 17.1886 18.7205 17.3363C18.652 18.0694 18.9602 18.9126 19.0927 19.619C19.1711 20.0372 19.2856 21.3002 19.3193 20.8754C19.3872 20.0167 19.2124 19.1126 19.0603 18.2733C18.9166 17.4805 19.0404 18.9606 19.0441 19.0058C19.1262 19.988 19.2879 20.9592 19.3435 21.9444C19.3484 22.03 19.2712 22.8286 19.562 22.6385C20.0552 22.3163 20.2504 21.4411 20.3712 20.8967C20.4899 20.3614 20.4392 20.1798 20.4926 20.8456C20.5428 21.4722 20.59 22.0989 20.5977 22.728C20.6012 23.0091 20.5977 22.6951 20.5977 22.6215C20.5977 22.2056 20.5977 21.7896 20.5977 21.3737C20.5977 20.9278 20.5977 21.2498 20.5977 21.4759C20.5977 21.9046 20.5977 22.3333 20.5977 22.7621C20.5977 23.2895 20.5805 23.7857 20.8567 24.2526C21.0168 24.5234 20.8705 24.2993 20.7434 24.21" stroke="#EBBA34" stroke-width="3" stroke-linecap="round"/>
</g>
<defs>
<clipPath id="clip0_31_46">
<rect width="30" height="30" fill="white"/>
</clipPath>
</defs>
</svg>
