<svg width="158" height="29" viewBox="0 0 158 29" fill="none" xmlns="http://www.w3.org/2000/svg">
<path d="M18.52 28.36L11.84 18L5.4 28.4L1.08 26.28L8.96 14.28L0.48 3.4L5.44 0.159998L11.88 10.16L18.08 -1.90735e-06L22.28 2.48L14.96 13.88L23.44 25.24L18.52 28.36ZM48.3063 0.199998L47.7463 17.6L48.2263 28H42.6263L43.1063 18.28L43.0263 16.16H32.2663L32.2263 17.6L32.7063 28H27.1063L27.5863 18.28L27.1063 1.2L32.7863 0.199998L32.3863 11.92H42.9063L42.6263 1.2L48.3063 0.199998ZM54.7234 28L55.2034 18.28L54.7234 0.399998H69.7234L69.2834 4.68H60.2834L60.0434 11.76H68.0434L67.6034 16H59.8834L59.8434 17.6L60.1234 23.76H69.8034L69.3634 28H54.7234ZM90.5709 28.2L88.6109 20.4H79.0509L76.9309 28L71.8109 27.6L75.3309 17.88L80.6909 0.679999L87.8509 0.159998L93.0109 17.28L96.3309 27.32L90.5709 28.2ZM84.2509 5.36H83.7309L80.2909 16.16H87.4109L84.2509 5.36ZM100.114 28L100.594 18.28L100.114 1.2L105.794 0.199998L105.234 17.6L105.514 24.08L113.714 23.44L113.274 28H100.114ZM113.945 5L114.385 0.399998H133.385L132.945 5L125.985 4.4L125.825 17.6L126.305 28H120.705L121.185 18.28L121.025 4.44L113.945 5ZM157.798 0.199998L157.238 17.6L157.718 28H152.118L152.598 18.28L152.518 16.16H141.758L141.718 17.6L142.198 28H136.598L137.078 18.28L136.598 1.2L142.278 0.199998L141.878 11.92H152.398L152.118 1.2L157.798 0.199998Z" fill="#EBBA34"/>
</svg>
